# xmcd
#
# Track frame offsets:
#	150
#	11455
#	21028
#	31363
#	43588
#	52595
#	66633
#	77153
#	88575
#	100425
#	109728
#
# Disc length: 1630 seconds
#
# Revision: 1
# Processed by: cddbd v1.4PL0 Copyright (c) Steve Scherf et al.
# Submitted via: audiograbber 1.82.01
#
DISCID=83065c0b
DTITLE=Canned Heat - One Step Behind The Blues
DYEAR=1900
DGENRE=Rock
TTITLE0=Spoonful
TTITLE1=Big Road Blues
TTITLE2=Rollin' And Tumblin' (With Harmonica)
TTITLE3=Got My Mojo Working
TTITLE4=Pretty Thing
TTITLE5=Louise
TTITLE6=Dimples
TTITLE7=Don't Hold On
TTITLE8=Straight Ahead
TTITLE9=Rollin' And Tumblin'
TTITLE10=Bonus Track
EXTD=
EXTT0=
EXTT1=
EXTT2=
EXTT3=
EXTT4=
EXTT5=
EXTT6=
EXTT7=
EXTT8=
EXTT9=
EXTT10=
PLAYORDER=
